<mxfile host="app.diagrams.net" modified="2024-03-19T01:42:22.657Z" agent="Mozilla/5.0 (Macintosh; Intel Mac OS X 10_15_7) AppleWebKit/537.36 (KHTML, like Gecko) Chrome/122.0.0.0 Safari/537.36" etag="kz-mrAztBmFMxxPpb8cc" version="24.0.7" type="github">
  <diagram name="PÃ¡gina-1" id="k90E9KC2zX3IGT56wxrb">
    <mxGraphModel dx="1026" dy="565" grid="1" gridSize="10" guides="1" tooltips="1" connect="1" arrows="1" fold="1" page="1" pageScale="1" pageWidth="827" pageHeight="1169" math="0" shadow="0">
      <root>
        <mxCell id="0" />
        <mxCell id="1" parent="0" />
        <mxCell id="WJvdtLQP2YueHtUUwrKF-2" value="" style="rounded=1;whiteSpace=wrap;html=1;" vertex="1" parent="1">
          <mxGeometry x="80" y="140" width="510" height="110" as="geometry" />
        </mxCell>
        <mxCell id="WJvdtLQP2YueHtUUwrKF-12" style="edgeStyle=orthogonalEdgeStyle;rounded=0;orthogonalLoop=1;jettySize=auto;html=1;entryX=0;entryY=0.5;entryDx=0;entryDy=0;" edge="1" parent="1" source="WJvdtLQP2YueHtUUwrKF-1" target="WJvdtLQP2YueHtUUwrKF-11">
          <mxGeometry relative="1" as="geometry">
            <Array as="points">
              <mxPoint x="170" y="315" />
            </Array>
          </mxGeometry>
        </mxCell>
        <mxCell id="WJvdtLQP2YueHtUUwrKF-1" value="prep" style="html=1;whiteSpace=wrap;strokeColor=none;fillColor=#0079D6;labelPosition=center;verticalLabelPosition=middle;verticalAlign=top;align=center;fontSize=12;outlineConnect=0;spacingTop=-6;fontColor=#FFFFFF;sketch=0;shape=mxgraph.sitemap.script;" vertex="1" parent="1">
          <mxGeometry x="130" y="170" width="80" height="50" as="geometry" />
        </mxCell>
        <mxCell id="WJvdtLQP2YueHtUUwrKF-5" value="inference" style="html=1;whiteSpace=wrap;strokeColor=none;fillColor=#0079D6;labelPosition=center;verticalLabelPosition=middle;verticalAlign=top;align=center;fontSize=12;outlineConnect=0;spacingTop=-6;fontColor=#FFFFFF;sketch=0;shape=mxgraph.sitemap.script;" vertex="1" parent="1">
          <mxGeometry x="470" y="170" width="80" height="50" as="geometry" />
        </mxCell>
        <mxCell id="WJvdtLQP2YueHtUUwrKF-6" value="data raw" style="shape=datastore;whiteSpace=wrap;html=1;" vertex="1" parent="1">
          <mxGeometry x="30" y="280" width="70" height="70" as="geometry" />
        </mxCell>
        <mxCell id="WJvdtLQP2YueHtUUwrKF-8" style="edgeStyle=orthogonalEdgeStyle;rounded=0;orthogonalLoop=1;jettySize=auto;html=1;entryX=0;entryY=0.5;entryDx=0;entryDy=0;entryPerimeter=0;" edge="1" parent="1" target="WJvdtLQP2YueHtUUwrKF-1">
          <mxGeometry relative="1" as="geometry">
            <mxPoint x="60" y="280" as="sourcePoint" />
            <Array as="points">
              <mxPoint x="60" y="195" />
            </Array>
          </mxGeometry>
        </mxCell>
        <mxCell id="WJvdtLQP2YueHtUUwrKF-13" style="edgeStyle=orthogonalEdgeStyle;rounded=0;orthogonalLoop=1;jettySize=auto;html=1;" edge="1" parent="1" source="WJvdtLQP2YueHtUUwrKF-11" target="WJvdtLQP2YueHtUUwrKF-4">
          <mxGeometry relative="1" as="geometry" />
        </mxCell>
        <mxCell id="WJvdtLQP2YueHtUUwrKF-11" value="data prep&lt;div&gt;clean&lt;/div&gt;" style="shape=datastore;whiteSpace=wrap;html=1;" vertex="1" parent="1">
          <mxGeometry x="220" y="280" width="70" height="70" as="geometry" />
        </mxCell>
        <mxCell id="WJvdtLQP2YueHtUUwrKF-15" style="edgeStyle=orthogonalEdgeStyle;rounded=0;orthogonalLoop=1;jettySize=auto;html=1;" edge="1" parent="1" source="WJvdtLQP2YueHtUUwrKF-14" target="WJvdtLQP2YueHtUUwrKF-4">
          <mxGeometry relative="1" as="geometry" />
        </mxCell>
        <mxCell id="WJvdtLQP2YueHtUUwrKF-14" value="" style="sketch=0;outlineConnect=0;fontColor=#232F3E;gradientColor=none;fillColor=#01A88D;strokeColor=none;dashed=0;verticalLabelPosition=bottom;verticalAlign=top;align=center;html=1;fontSize=12;fontStyle=0;aspect=fixed;pointerEvents=1;shape=mxgraph.aws4.sagemaker_model;" vertex="1" parent="1">
          <mxGeometry x="316" y="50" width="48" height="48" as="geometry" />
        </mxCell>
        <mxCell id="WJvdtLQP2YueHtUUwrKF-19" style="edgeStyle=orthogonalEdgeStyle;rounded=0;orthogonalLoop=1;jettySize=auto;html=1;" edge="1" parent="1" source="WJvdtLQP2YueHtUUwrKF-4" target="WJvdtLQP2YueHtUUwrKF-5">
          <mxGeometry relative="1" as="geometry" />
        </mxCell>
        <mxCell id="WJvdtLQP2YueHtUUwrKF-4" value="train" style="html=1;whiteSpace=wrap;strokeColor=none;fillColor=#0079D6;labelPosition=center;verticalLabelPosition=middle;verticalAlign=top;align=center;fontSize=12;outlineConnect=0;spacingTop=-6;fontColor=#FFFFFF;sketch=0;shape=mxgraph.sitemap.script;" vertex="1" parent="1">
          <mxGeometry x="300" y="170" width="80" height="50" as="geometry" />
        </mxCell>
        <mxCell id="WJvdtLQP2YueHtUUwrKF-16" value="Model&amp;nbsp;&lt;div&gt;&lt;br&gt;&lt;/div&gt;&lt;div&gt;&lt;br&gt;&lt;/div&gt;&lt;div&gt;&lt;br&gt;&lt;/div&gt;&lt;div&gt;&lt;br&gt;&lt;/div&gt;&lt;div&gt;&lt;br&gt;&lt;/div&gt;&lt;div&gt;&lt;br&gt;&lt;/div&gt;&lt;div&gt;&lt;br&gt;&lt;/div&gt;&lt;div&gt;&lt;br&gt;&lt;/div&gt;&lt;div&gt;&lt;br&gt;&lt;/div&gt;&lt;div&gt;&lt;br&gt;&lt;/div&gt;&lt;div&gt;&lt;br&gt;&lt;/div&gt;&lt;div&gt;&lt;br&gt;&lt;/div&gt;&lt;div&gt;&lt;br&gt;&lt;/div&gt;" style="rounded=0;whiteSpace=wrap;html=1;fillColor=none;strokeColor=#82b366;dashed=1;dashPattern=8 8;strokeWidth=3;" vertex="1" parent="1">
          <mxGeometry x="280" y="20" width="120" height="220" as="geometry" />
        </mxCell>
        <mxCell id="WJvdtLQP2YueHtUUwrKF-20" style="edgeStyle=orthogonalEdgeStyle;rounded=0;orthogonalLoop=1;jettySize=auto;html=1;entryX=0.5;entryY=0;entryDx=0;entryDy=0;entryPerimeter=0;" edge="1" parent="1" source="WJvdtLQP2YueHtUUwrKF-16" target="WJvdtLQP2YueHtUUwrKF-5">
          <mxGeometry relative="1" as="geometry" />
        </mxCell>
        <mxCell id="WJvdtLQP2YueHtUUwrKF-21" value="" style="aspect=fixed;sketch=0;html=1;dashed=0;whitespace=wrap;fillColor=#2875E2;strokeColor=#ffffff;points=[[0.005,0.63,0],[0.1,0.2,0],[0.9,0.2,0],[0.5,0,0],[0.995,0.63,0],[0.72,0.99,0],[0.5,1,0],[0.28,0.99,0]];shape=mxgraph.kubernetes.icon2;prIcon=user" vertex="1" parent="1">
          <mxGeometry x="485" y="20" width="50" height="48" as="geometry" />
        </mxCell>
        <mxCell id="WJvdtLQP2YueHtUUwrKF-22" value="" style="rounded=0;whiteSpace=wrap;html=1;fillColor=none;strokeColor=#b85450;dashed=1;strokeWidth=3;" vertex="1" parent="1">
          <mxGeometry x="450" y="14" width="120" height="86" as="geometry" />
        </mxCell>
      </root>
    </mxGraphModel>
  </diagram>
</mxfile>
